# xmcd CD database file
#
# Track frame offsets:
#	150
#	18115
#	43336
#	65091
#	99770
#	189282
#	207070
#	254196
#	279250
#	297873
#
# Disc length: 4226 seconds
#
# Revision: 0
# Processed by: cddbd v1.5.2PL0 Copyright (c) Steve Scherf et al.
# Submitted via: CDex 1.70beta2
#
DISCID=8d10800a
DTITLE=Lars Danielsson - Mélange Bleu
DYEAR=1900
DGENRE=Jazz
TTITLE0=Mélange Bleu
TTITLE1=Makro
TTITLE2=Les Coulisses
TTITLE3=Ironside
TTITLE4=Judas Bolero
TTITLE5=Minor People
TTITLE6=Sketches of Twelve
TTITLE7=Naïve
TTITLE8=Bacchanalia
TTITLE9=After Zero
EXTD=
EXTT0=
EXTT1=
EXTT2=
EXTT3=
EXTT4=
EXTT5=
EXTT6=
EXTT7=
EXTT8=
EXTT9=
PLAYORDER=
